<svg class="cta__arrow" xmlns="http://www.w3.org/2000/svg" viewBox="0 0 107 130"><g id="Landings" stroke="none" stroke-width="1" fill="none" fill-rule="evenodd"><path d="M136 41l-.7 1.4c-.7 1.2-1.6 2.3-2.2 3.6-2 4-3.7 8.2-5.7 12.3a90.9 90.9 0 01-6 10l-.8 1-1.2 1.5c-1.8 2.5-3.2 5.3-5.2 7.6-3.1 3.6-6.2 7.3-9.8 10.3-8 6.7-17.2 10-27.7 9.3h-.5l-1.2-.1c-4.3-.3-8.5-.6-12.6-2.3-.5-.2-1.4.1-2 .5-4.9 4-10.6 6.1-16.8 6.5-4.7.3-9.5.7-14 0A53 53 0 019.7 92.3c-4-3.1-6.8-7.3-8.6-12-.3-.7.2-2 .7-2.6.6-.7 1.4-.4 2.4 0 2.4 1.1 3.6 3.1 4.9 5.1l.3.6.7 1a22 22 0 0012.7 9 41 41 0 0026-1.6c4.5-1.7 4.4-1.9 1.1-5.2a20.3 20.3 0 01-6.4-16c.4-7.2 6.3-12.4 13.5-11.8 2.3.1 3.8 1.5 5.3 3 3.4 3.3 5.2 7.4 5.9 12 .7 4.8.8 9.6-1.4 14.2-.6 1 0 1.5 1 1.6l3.4.2 3.4.2c10.9.4 20-3.8 28.2-10.7 9.3-7.9 16.5-17.5 22.9-27.9 1.9-3.1 3.7-6.3 5.7-9.4.6-.8 1.4-1.7 2.3-2 .6-.2 1.5.6 2.3 1zM54.3 91.2l-4.8 2.7.2.6 4.9-2.8-.3-.5zm41.6-4.6l-8.1 3.7.2.4 8.2-3.5-.3-.6zM-8.7 62c4.3 2.2 9 2.2 13.5 3.5 3 .8 5.8 2.1 7.7 4.8.4.5.3 1.3.5 2-.7.2-1.4.5-2 .4l-13.6-2.8c-1.4-.4-1.7.2-1.8 1.5L-6 80c-.2 1.3 0 2.5-.1 3.8l.1.3-.1.8v.4c-.2.8-.3 1.5-.5 1.5-1 .2-2.3 0-3.3-.5-2-1.2-2.1-3-2.1-5V81l-.1-2.1c.3-4 .8-8.4 1-12.7 0-1.5-.4-3 1.2-3.8.4-.2.9-.5 1.1-.4zm67 4.7c-4 .8-7 4.4-7.3 8.6-.4 4.6 2.3 7.5 5.5 10 .3.2 1.2-.2 1.6-.5 2.7-3 3.4-6.7 3.6-10.7L60.6 68c-.3-1.3-1-1.6-2.3-1.3z" id="doodle_arrow" fill="red" style="mix-blend-mode:hard-light" transform="rotate(-40 62 71.5)"/></g></svg>