<svg class="bike-doodles bike-doodles__heat-left" xmlns="http://www.w3.org/2000/svg" viewBox="0 0 71 69"><g id="Landings" stroke="none" stroke-width="1" fill="none" fill-rule="evenodd"><path d="M42.8 1c1.2.7 1.6 2.6.6 3-1.8.6-3 2-4 3.3l-.5.5-1.2 1.4a115 115 0 00-14.6 18c-5 8-8.7 16.6-11.5 25.6C10.3 57 9 61.2 8 65.5c-.2.5-1 .9-.6 1.6l-.2.4c-.3.4-4.4 1.1-4.9.8-2-1.3-2.3-2-2.2-5A100.2 100.2 0 0118.2 17 49 49 0 0136 .8c2.4-1.2 4.5-1 6.7.2zM27.5 9.7a92.2 92.2 0 00-24.2 47 108.3 108.3 0 0124.2-47zm28.8 7c.5.2.7.6.7 1.1 0 .5-.4.7-.8 1-1.4.8-3 1.3-3.5 3.2 0 .4-.5.9-1 .9s0-.7-.8-1c.7 2-.5 2.9-1.7 3.9-1.1 1-1.5 2.5-2.6 3.6a23.6 23.6 0 00-3.6 4.4c-.6 1.2-2 1.8-2.3 3.3-.2 1.3-1 2.5-2.3 3.2-.5.2-.5.8-.7 1.3-.5 1.3-1 2.6-2.3 3.3-.2.1-.5.4-.4.6 0 2-1.7 2.8-2.3 4.3-.3.7-1 .9-1.7 1-.7 0-1.8.3-1.9.1l-.3-.5-.1-.3c-.5-.8-.9-1.6-.6-2.8a45.9 45.9 0 017.4-14.8c3.3-4.7 7.1-8.8 11.3-12.5 1.6-1.5 3.4-2.8 5.4-3.7 1.5-.6 2.8-.2 4.1.3zm14 11.3c-.1.5-.8.7-.8 1.3.2.2.4 0 .5-.1l.1-.2c.2-.2.4-.3.6 0 .5.6.3 1.6 0 1.8-1.1.7-1.2 2.2-2.1 3-.3.3.2 1.2-.8 1.2-.5 0-1 1-1.7.2.2.7-.5.9-.6 1.2-.3 1-1 1-1.9 1.4 1 .8.6 1.1 0 2-1 1.2-2 2.6-3.2 3.4-1.7 1-2 3-3.5 4.1-1.3 1-3.3.9-4.4 0-.7-.7-.5-1.3-.3-1.8v-.2l.2-.4a26 26 0 017-9.6c2.2-2 4.6-3.6 7-5.3.8-.5 1-.2 1.1.6V30.9c0 .2 0 .5.4.7l1-1.6c0-.1.1-.3 0-.4-.3-1.1-.1-1.3 1.4-1.6zM58.9 38a22 22 0 00-5.6 8.2c1.6-3 3.6-5.6 5.6-8.3zm-20.2-6.8a49 49 0 00-8.4 14.2c2.3-5 5.3-9.6 8.4-14.2zM64 32.4l-1.5 2c1-.6 1.9-.5 2.4-1.2.2-.3.7-.6.3-1-.4-.3-.9-.2-1.2.2zm-21-6.8l-2.8 3.2.3.2 2.8-3.1-.4-.3z" id="doodle_heat_left" fill="red" style="mix-blend-mode:hard-light"/></g></svg>