<svg class="bike-doodles bike-doodles__light" xmlns="http://www.w3.org/2000/svg" viewBox="0 0 84 98"><g id="Landings" stroke="none" stroke-width="1" fill="none" fill-rule="evenodd"><path d="M47.3 9.6c0 1.2-2.3 2.1-.4 3.6.1.1.1.7 0 .8-1.5 1.5-.7 3.3-.7 5-.2 3.3 0 6.5-.1 9.8-.1 3.3.3 6.6-.7 9.9-.6 2.4-.3 5.2 0 7.7.3 2.8-1.1 5.2-.9 7.9.4 3.6-1.3 7-.8 10.6v.5c-1.5 3.7-1.4 7.8-2.4 11.6-.3 1.4-1.4 2.8-.5 4.4 1.1.5 1.9-.4 2.8-.6 2.9-.5 5.6-1.7 8.5-1.7.9-1.7 2.6-.5 4-1.3 1-.7 2.8-1 4.2-1 1.5 0 2.6-1.5 4-1 1.5-1.6 3.6-.6 5.5-1.4C73 72.9 76.6 72.2 80 71a11 11 0 004.3-2.8c.5-2.4-.4-4-1.2-5.6-2.4-4-4.8-8.1-7.6-11.8-4.5-5.9-8.6-12-12.7-18l-9.8-15C51 15 49.8 12 47.3 9.6m33 70.9c-.9.7-1.5 1.4-2.1 2l-.3-.2-.4-.4c-2.4 2-5.9.5-8.2 2.6-.4-.3-.8-1-1.3-.6-1 .8-1.7 1-2.6.2-.2-.2-.4-.2-.5.1-.3 1.6-1.4 1.3-2.6 1.3-1.1 0-2.2.8-3.3 1.1-3 .9-6.2.8-9 2.1-1 .4-1.5-1.1-2.6-.1-.5.5-1.6 1-2.7.8-1-.2-1.8.6-2.8.7a4.7 4.7 0 00-4 3.4l-.5-.5c-1.3.4-1.6 1.1-.5 2.2l-1 1-.7-.7c-1.2.6-.9 2.6-2.2 2.7-1.2 0-2.1.4-3 .8-1.1-.5-.1-1.6-.9-2-.4.2-.7.9-1.6.3-.1-.8-.5-1.9.5-2.8-1.2-.8-2.5-1-3.9-1-1.5 0-3-.5-3.6-2.2C20.1 89.9 18 90 18 88l.6-.8a5.6 5.6 0 013.7-2.9c3-.6 5.7-2.4 8.6-2.9 2.5-.4 2.7-2.2 3.2-3.8.3-1 .6-2.3.7-3.4.3-3.5 1.6-6.9 1.4-10.4 1.4-2.3.3-5 1-7.4.9-2.4-.1-5 .5-7.4 1-4.3.4-8.7.5-13 .2-4.4 0-8.7 0-13 0-4.4.6-9 0-13.3-.7-4.4-.4-8.7-.6-13L40.4-6l2 2c1-1.3 2.3-1.2 3-.8 3.3 1.5 6.1 3.4 8 6.7 2.7 5.2 5.9 10.1 9 15a220 220 0 007.4 11.3c3.3 4.7 6.4 9.5 10.2 13.9 1.5 1.7 2.3 4 4.2 5.4.9.6-.5 2.2 1.3 2.3 1.1 0 1 1.6 1.7 2.2.9.7 1.3 1.8 2 2.6.7.7.8 1.8 1.6 2.4.8.6 1.2 1.6 1.8 2.3A48 48 0 0196 65a7.1 7.1 0 01-.1 7.2l-.5.8c-.8.8-.2 2.2-1 2.6-2 1.2-3.5 3-5.7 3.4-1.1.3-2 .8-3 1.3-.8.5-1.8-.1-2.8.6-.6.6-1.9.7-2.8-.4" id="doodle_light" fill="red" style="mix-blend-mode:hard-light" transform="scale(1 -1) rotate(40 185.3 0)"/></g></svg>