<svg xmlns="http://www.w3.org/2000/svg" viewBox="0 0 114 24"><g id="Landings" stroke="none" stroke-width="1" fill="none" fill-rule="evenodd"><g id="Spark" transform="translate(-32 -32)" fill="#000" fill-rule="nonzero"><g id="Top" transform="translate(32 32)"><path d="M9.2 24c6.1 0 10.2-3.3 10.2-9.1 0-3.3-2.1-5-7.6-6.1-2.2-.5-2.6-.8-2.6-1.6 0-.6.5-1.3 1.8-1.3h.9c.7 0 1 .1 1 .8v.4h7l.1-1.5C20 2.3 17.8 0 13 0h-1.7C5.9 0 1.9 3.4 1.9 8.5c0 4.1 3.5 5.3 8.9 6.5 1 .3 1.4.6 1.4 1.3 0 1-.6 1.8-1.9 1.8H8.9c-1 0-1.7-.2-1.7-1v-.4h-7c-.2.5-.2 1-.2 1.5C0 21.6 2.5 24 7.8 24h1.4zm18.7-.3l1.3-7.3h4.5c4.5 0 8-2.8 8.7-7.3l.1-1 .2-1.6c0-3.7-2.5-6.2-6.6-6.2H25l-4 23.4h7zm4.9-13.1h-2.6l.8-4.4h3c.9 0 1.4.3 1.4 1.3l-.1.8-.1.4c-.2.9-1 1.9-2.4 1.9zM60.7.3l4 23.4h-7.4l-.3-3.5h-7l-1.6 3.5h-7.6L53.3.3h7.4zm-5.2 6.5l-2.4 4.9h2.2l.2 3.5 2.4-4.9h-2.2l-.2-3.5zm18.7 16.9l1.4-7.8h1.6l1.9 7.8h7.7l-2.6-9c2.5-1 4.2-3 4.7-6.1L89 8l.2-1.6c0-3.7-2.5-6-6.6-6H71.2l-4 23.3h7zm5.1-13.5h-2.7l.7-4h2.9c1 0 1.7.2 1.7 1.2l-.1.6v.2c-.2 1-1 2-2.5 2zm16.4 13.5l.9-4.9 2.5-2.7 2.5 7.6h8l-5.3-13.3 9.2-10h-8.3l-6.8 8.3L99.8.3h-7l-4.1 23.4h7z" id="logo" style="mix-blend-mode:multiply"/></g></g></g></svg>